<svg xmlns="http://www.w3.org/2000/svg" xmlns:xlink="http://www.w3.org/1999/xlink" xmlns:lucid="lucid" width="1653.39" height="1812.92"><g transform="translate(0 0)" lucid:page-tab-id="HWEp-vi-RSFO"><path d="M676.22 220h300v240h-300z" stroke="#333" stroke-width="2" fill="#fff"/><path d="M676.22 257.6h300m-300 101.3h300" stroke="#333" stroke-width="2" fill="none"/><use xlink:href="#a" transform="matrix(1,0,0,1,684.2187281045365,228.00000000000006) translate(117 14.6)"/><use xlink:href="#b" transform="matrix(1,0,0,1,688.2187281045365,265.6000000000001) translate(0 25)"/><use xlink:href="#c" transform="matrix(1,0,0,1,688.2187281045365,265.6000000000001) translate(15.5 25)"/><use xlink:href="#d" transform="matrix(1,0,0,1,688.2187281045365,265.6000000000001) translate(69.4 25)"/><use xlink:href="#e" transform="matrix(1,0,0,1,688.2187281045365,265.6000000000001) translate(79.4 25)"/><use xlink:href="#f" transform="matrix(1,0,0,1,688.2187281045365,265.6000000000001) translate(0 46.6)"/><use xlink:href="#g" transform="matrix(1,0,0,1,688.2187281045365,265.6000000000001) translate(15.5 46.6)"/><use xlink:href="#d" transform="matrix(1,0,0,1,688.2187281045365,265.6000000000001) translate(34.45 46.6)"/><use xlink:href="#h" transform="matrix(1,0,0,1,688.2187281045365,265.6000000000001) translate(44.45 46.6)"/><use xlink:href="#b" transform="matrix(1,0,0,1,688.2187281045365,265.6000000000001) translate(0 68.2)"/><use xlink:href="#i" transform="matrix(1,0,0,1,688.2187281045365,265.6000000000001) translate(15.5 68.2)"/><use xlink:href="#d" transform="matrix(1,0,0,1,688.2187281045365,265.6000000000001) translate(58.5 68.2)"/><use xlink:href="#j" transform="matrix(1,0,0,1,688.2187281045365,265.6000000000001) translate(68.5 68.2)"/><use xlink:href="#b" transform="matrix(1,0,0,1,688.2187281045365,366.9000000000001) translate(0 25)"/><use xlink:href="#k" transform="matrix(1,0,0,1,688.2187281045365,366.9000000000001) translate(15.5 25)"/><use xlink:href="#d" transform="matrix(1,0,0,1,688.2187281045365,366.9000000000001) translate(130.3 25)"/><use xlink:href="#l" transform="matrix(1,0,0,1,688.2187281045365,366.9000000000001) translate(140.3 25)"/><use xlink:href="#b" transform="matrix(1,0,0,1,688.2187281045365,366.9000000000001) translate(0 46.6)"/><use xlink:href="#m" transform="matrix(1,0,0,1,688.2187281045365,366.9000000000001) translate(15.5 46.6)"/><use xlink:href="#d" transform="matrix(1,0,0,1,688.2187281045365,366.9000000000001) translate(144.20000000000002 46.6)"/><use xlink:href="#n" transform="matrix(1,0,0,1,688.2187281045365,366.9000000000001) translate(154.20000000000002 46.6)"/><use xlink:href="#f" transform="matrix(1,0,0,1,688.2187281045365,366.9000000000001) translate(0 68.2)"/><use xlink:href="#o" transform="matrix(1,0,0,1,688.2187281045365,366.9000000000001) translate(15.5 68.2)"/><use xlink:href="#d" transform="matrix(1,0,0,1,688.2187281045365,366.9000000000001) translate(98.25000000000001 68.2)"/><use xlink:href="#p" transform="matrix(1,0,0,1,688.2187281045365,366.9000000000001) translate(108.25000000000001 68.2)"/><path d="M399.84 78c0-4.42 3.6-8 8-8h836.75c4.4 0 8 3.58 8 8v25.16c0 4.4-3.6 8-8 8H407.83c-4.4 0-8-3.6-8-8z" stroke="#000" stroke-opacity="0" stroke-width="2" fill="#fff" fill-opacity="0"/><use xlink:href="#q" transform="matrix(1,0,0,1,403.843973870479,73.99999999976717) translate(267.52975308641976 23.657777777777778)"/><use xlink:href="#r" transform="matrix(1,0,0,1,403.843973870479,73.99999999976717) translate(417.43345679012344 23.657777777777778)"/><use xlink:href="#s" transform="matrix(1,0,0,1,403.843973870479,73.99999999976717) translate(480.8038271604938 23.657777777777778)"/><path d="M676.32 109.8H985.7M676.35 109.8h-1.03M985.66 109.8h1.03" stroke="#a9afb8" stroke-width="2" fill="none"/><path d="M399.84 119.16c0-4.42 3.6-8 8-8h837.7c4.43 0 8 3.58 8 8V122c0 4.42-3.57 8-8 8h-837.7c-4.4 0-8-3.58-8-8z" stroke="#000" stroke-opacity="0" stroke-width="2" fill="#fff" fill-opacity="0"/><use xlink:href="#t" transform="matrix(1,0,0,1,403.84397387047943,115.15522395666598) translate(310.1218827160494 14.917037037037037)"/><use xlink:href="#u" transform="matrix(1,0,0,1,403.84397387047943,115.15522395666598) translate(344.92095679012345 14.917037037037037)"/><use xlink:href="#v" transform="matrix(1,0,0,1,403.84397387047943,115.15522395666598) translate(404.4065534979424 14.917037037037037)"/><use xlink:href="#w" transform="matrix(1,0,0,1,403.84397387047943,115.15522395666598) translate(416.8560390946502 14.917037037037037)"/><use xlink:href="#x" transform="matrix(1,0,0,1,403.84397387047943,115.15522395666598) translate(491.510462962963 14.917037037037037)"/><use xlink:href="#y" transform="matrix(1,0,0,1,403.84397387047943,115.15522395666598) translate(508.50634773662557 14.917037037037037)"/><path d="M676.22 600h300v219h-300z" stroke="#333" stroke-width="2" fill="#fff"/><path d="M676.22 637.6h300m-300 101.3h300" stroke="#333" stroke-width="2" fill="none"/><use xlink:href="#z" transform="matrix(1,0,0,1,684.2187281045365,608) translate(115 14.6)"/><use xlink:href="#b" transform="matrix(1,0,0,1,688.2187281045365,645.6) translate(0 25)"/><use xlink:href="#A" transform="matrix(1,0,0,1,688.2187281045365,645.6) translate(15.5 25)"/><use xlink:href="#d" transform="matrix(1,0,0,1,688.2187281045365,645.6) translate(86.4 25)"/><use xlink:href="#B" transform="matrix(1,0,0,1,688.2187281045365,645.6) translate(96.4 25)"/><use xlink:href="#C" transform="matrix(1,0,0,1,688.2187281045365,645.6) translate(120.35000000000001 25)"/><use xlink:href="#D" transform="matrix(1,0,0,1,688.2187281045365,645.6) translate(135.85000000000002 25)"/><use xlink:href="#b" transform="matrix(1,0,0,1,688.2187281045365,645.6) translate(0 46.6)"/><use xlink:href="#E" transform="matrix(1,0,0,1,688.2187281045365,645.6) translate(15.5 46.6)"/><use xlink:href="#d" transform="matrix(1,0,0,1,688.2187281045365,645.6) translate(47.45 46.6)"/><use xlink:href="#F" transform="matrix(1,0,0,1,688.2187281045365,645.6) translate(57.45 46.6)"/><use xlink:href="#b" transform="matrix(1,0,0,1,688.2187281045365,645.6) translate(0 68.2)"/><use xlink:href="#G" transform="matrix(1,0,0,1,688.2187281045365,645.6) translate(15.5 68.2)"/><use xlink:href="#d" transform="matrix(1,0,0,1,688.2187281045365,645.6) translate(53.45 68.2)"/><use xlink:href="#H" transform="matrix(1,0,0,1,688.2187281045365,645.6) translate(63.45 68.2)"/><use xlink:href="#b" transform="matrix(1,0,0,1,688.2187281045365,746.9) translate(0 24.799999999999997)"/><use xlink:href="#I" transform="matrix(1,0,0,1,688.2187281045365,746.9) translate(15.5 24.799999999999997)"/><use xlink:href="#J" transform="matrix(1,0,0,1,688.2187281045365,746.9) translate(90.4 24.799999999999997)"/><use xlink:href="#d" transform="matrix(1,0,0,1,688.2187281045365,746.9) translate(107.30000000000001 24.799999999999997)"/><use xlink:href="#K" transform="matrix(1,0,0,1,688.2187281045365,746.9) translate(117.30000000000001 24.799999999999997)"/><use xlink:href="#L" transform="matrix(1,0,0,1,688.2187281045365,746.9) translate(156.25 24.799999999999997)"/><use xlink:href="#b" transform="matrix(1,0,0,1,688.2187281045365,746.9) translate(0 46.4)"/><use xlink:href="#M" transform="matrix(1,0,0,1,688.2187281045365,746.9) translate(15.5 46.4)"/><use xlink:href="#J" transform="matrix(1,0,0,1,688.2187281045365,746.9) translate(55.45 46.4)"/><use xlink:href="#d" transform="matrix(1,0,0,1,688.2187281045365,746.9) translate(72.35 46.4)"/><use xlink:href="#N" transform="matrix(1,0,0,1,688.2187281045365,746.9) translate(82.35 46.4)"/><path d="M1200 241.5h300v197h-300z" stroke="#333" stroke-width="2" fill="#fff"/><path d="M1200 279.1h300m-300 58.1h300" stroke="#333" stroke-width="2" fill="none"/><g><use xlink:href="#O" transform="matrix(1,0,0,1,1208,249.50000000000006) translate(100.07499999999999 14.6)"/></g><g><use xlink:href="#b" transform="matrix(1,0,0,1,1212,287.1000000000001) translate(0 25.1)"/><use xlink:href="#P" transform="matrix(1,0,0,1,1212,287.1000000000001) translate(15.5 25.1)"/><use xlink:href="#d" transform="matrix(1,0,0,1,1212,287.1000000000001) translate(64.45 25.1)"/><use xlink:href="#Q" transform="matrix(1,0,0,1,1212,287.1000000000001) translate(74.45 25.1)"/></g><g><use xlink:href="#b" transform="matrix(1,0,0,1,1212,345.2000000000001) translate(0 25)"/><use xlink:href="#R" transform="matrix(1,0,0,1,1212,345.2000000000001) translate(15.5 25)"/><use xlink:href="#J" transform="matrix(1,0,0,1,1212,345.2000000000001) translate(62.35 25)"/><use xlink:href="#d" transform="matrix(1,0,0,1,1212,345.2000000000001) translate(79.25 25)"/><use xlink:href="#S" transform="matrix(1,0,0,1,1212,345.2000000000001) translate(89.25 25)"/><use xlink:href="#b" transform="matrix(1,0,0,1,1212,345.2000000000001) translate(0 46.6)"/><use xlink:href="#T" transform="matrix(1,0,0,1,1212,345.2000000000001) translate(15.5 46.6)"/><use xlink:href="#J" transform="matrix(1,0,0,1,1212,345.2000000000001) translate(76.1 46.6)"/><use xlink:href="#d" transform="matrix(1,0,0,1,1212,345.2000000000001) translate(93 46.6)"/><use xlink:href="#n" transform="matrix(1,0,0,1,1212,345.2000000000001) translate(103 46.6)"/><use xlink:href="#U" transform="matrix(1,0,0,1,1212,345.2000000000001) translate(0 68.2)"/><use xlink:href="#d" transform="matrix(1,0,0,1,1212,345.2000000000001) translate(93.25000000000001 68.2)"/><use xlink:href="#p" transform="matrix(1,0,0,1,1212,345.2000000000001) translate(103.25000000000001 68.2)"/></g><path d="M220 611h300v197H220z" stroke="#333" stroke-width="2" fill="#fff"/><path d="M220 648.6h300m-300 79.7h300" stroke="#333" stroke-width="2" fill="none"/><g><use xlink:href="#V" transform="matrix(1,0,0,1,228,619) translate(123.025 14.6)"/></g><g><use xlink:href="#b" transform="matrix(1,0,0,1,232,656.6) translate(0 24.799999999999997)"/><use xlink:href="#W" transform="matrix(1,0,0,1,232,656.6) translate(15.5 24.799999999999997)"/><use xlink:href="#d" transform="matrix(1,0,0,1,232,656.6) translate(54.5 24.799999999999997)"/><use xlink:href="#X" transform="matrix(1,0,0,1,232,656.6) translate(64.5 24.799999999999997)"/><use xlink:href="#b" transform="matrix(1,0,0,1,232,656.6) translate(0 46.4)"/><use xlink:href="#Y" transform="matrix(1,0,0,1,232,656.6) translate(15.5 46.4)"/><use xlink:href="#d" transform="matrix(1,0,0,1,232,656.6) translate(46.45 46.4)"/><use xlink:href="#Z" transform="matrix(1,0,0,1,232,656.6) translate(56.45 46.4)"/></g><g><use xlink:href="#b" transform="matrix(1,0,0,1,232,736.3000000000001) translate(0 24.799999999999997)"/><use xlink:href="#aa" transform="matrix(1,0,0,1,232,736.3000000000001) translate(15.5 24.799999999999997)"/><use xlink:href="#J" transform="matrix(1,0,0,1,232,736.3000000000001) translate(75.45 24.799999999999997)"/><use xlink:href="#d" transform="matrix(1,0,0,1,232,736.3000000000001) translate(92.35 24.799999999999997)"/><use xlink:href="#X" transform="matrix(1,0,0,1,232,736.3000000000001) translate(102.35 24.799999999999997)"/><use xlink:href="#ab" transform="matrix(1,0,0,1,232,736.3000000000001) translate(0 46.4)"/><use xlink:href="#J" transform="matrix(1,0,0,1,232,736.3000000000001) translate(81.35000000000001 46.4)"/><use xlink:href="#d" transform="matrix(1,0,0,1,232,736.3000000000001) translate(98.25 46.4)"/><use xlink:href="#p" transform="matrix(1,0,0,1,232,736.3000000000001) translate(108.25 46.4)"/></g><path d="M976.22 880h300v240h-300z" stroke="#333" stroke-width="2" fill="#fff"/><path d="M976.22 917.6h300m-300 122.9h300" stroke="#333" stroke-width="2" fill="none"/><g><use xlink:href="#ac" transform="matrix(1,0,0,1,984.2187281045365,888) translate(121.55 14.6)"/></g><g><use xlink:href="#b" transform="matrix(1,0,0,1,988.2187281045365,925.6) translate(0 24.69999999999999)"/><use xlink:href="#ad" transform="matrix(1,0,0,1,988.2187281045365,925.6) translate(15.5 24.69999999999999)"/><use xlink:href="#d" transform="matrix(1,0,0,1,988.2187281045365,925.6) translate(59.4 24.69999999999999)"/><use xlink:href="#X" transform="matrix(1,0,0,1,988.2187281045365,925.6) translate(69.4 24.69999999999999)"/><use xlink:href="#b" transform="matrix(1,0,0,1,988.2187281045365,925.6) translate(0 46.29999999999999)"/><use xlink:href="#ae" transform="matrix(1,0,0,1,988.2187281045365,925.6) translate(15.5 46.29999999999999)"/><use xlink:href="#d" transform="matrix(1,0,0,1,988.2187281045365,925.6) translate(65.45 46.29999999999999)"/><use xlink:href="#af" transform="matrix(1,0,0,1,988.2187281045365,925.6) translate(75.45 46.29999999999999)"/><use xlink:href="#b" transform="matrix(1,0,0,1,988.2187281045365,925.6) translate(0 67.89999999999999)"/><use xlink:href="#ag" transform="matrix(1,0,0,1,988.2187281045365,925.6) translate(15.5 67.89999999999999)"/><use xlink:href="#d" transform="matrix(1,0,0,1,988.2187281045365,925.6) translate(59.400000000000006 67.89999999999999)"/><use xlink:href="#af" transform="matrix(1,0,0,1,988.2187281045365,925.6) translate(69.4 67.89999999999999)"/><use xlink:href="#b" transform="matrix(1,0,0,1,988.2187281045365,925.6) translate(0 89.5)"/><use xlink:href="#ah" transform="matrix(1,0,0,1,988.2187281045365,925.6) translate(15.5 89.5)"/><use xlink:href="#d" transform="matrix(1,0,0,1,988.2187281045365,925.6) translate(141 89.5)"/><use xlink:href="#ai" transform="matrix(1,0,0,1,988.2187281045365,925.6) translate(151 89.5)"/></g><g><use xlink:href="#b" transform="matrix(1,0,0,1,988.2187281045365,1048.5) translate(0 24.799999999999997)"/><use xlink:href="#aj" transform="matrix(1,0,0,1,988.2187281045365,1048.5) translate(15.5 24.799999999999997)"/><use xlink:href="#ak" transform="matrix(1,0,0,1,988.2187281045365,1048.5) translate(66.15 24.799999999999997)"/><use xlink:href="#al" transform="matrix(1,0,0,1,988.2187281045365,1048.5) translate(132 24.799999999999997)"/><use xlink:href="#am" transform="matrix(1,0,0,1,988.2187281045365,1048.5) translate(0 46.4)"/><use xlink:href="#J" transform="matrix(1,0,0,1,988.2187281045365,1048.5) translate(81.35000000000001 46.4)"/><use xlink:href="#d" transform="matrix(1,0,0,1,988.2187281045365,1048.5) translate(98.25 46.4)"/><use xlink:href="#p" transform="matrix(1,0,0,1,988.2187281045365,1048.5) translate(108.25 46.4)"/></g><path d="M826.22 598.5V491.38" stroke="#333" fill="none"/><path d="M826.72 599h-1v-.5h1" fill="#333"/><path d="M826.22 461.7l14.85 14.86-14.85 15.15-14.85-15.14z" stroke="#333" fill="#333"/><g><use xlink:href="#an" transform="matrix(1,0,0,1,834.2187281045366,570.8476432413869) translate(0 14.4)"/></g><g><use xlink:href="#ao" transform="matrix(1,0,0,1,808.2187281045365,495.4924829833935) translate(0 14.4)"/></g><path d="M1277.72 1000H1338c6.63 0 12-5.37 12-12V469.87" stroke="#333" fill="none"/><path d="M1277.73 1000.5h-.5v-1h.5" fill="#333"/><path d="M1350 440.2l14.85 14.86L1350 470.2l-14.85-15.14z" stroke="#333" fill="#fff"/><g><use xlink:href="#ap" transform="matrix(1,0,0,1,1281.6662206373583,974.4000000000001) translate(0 14.4)"/></g><g><use xlink:href="#an" transform="matrix(1,0,0,1,1316.5,449.5174936910542) translate(0 14.4)"/></g><path d="M521.5 709.5h123.34" stroke="#333" fill="none"/><path d="M521.5 710h-.5v-1h.5" fill="#333"/><path d="M674.5 709.5l-14.84 14.85-15.15-14.85 15.16-14.85z" stroke="#333" fill="#333"/><g><use xlink:href="#an" transform="matrix(1,0,0,1,523.4198467882195,683.9) translate(0 14.4)"/></g><g><use xlink:href="#an" transform="matrix(1,0,0,1,640.2717029181554,668.4) translate(0 14.4)"/></g><path d="M826.22 850.38V988c0 6.63 5.37 12 12 12h136.5" stroke="#333" fill="none"/><path d="M826.22 820.7l14.85 14.86-14.85 15.15-14.85-15.14z" stroke="#333" fill="#fff"/><path d="M975.22 1000.5h-.5v-1h.5" fill="#333"/><g><use xlink:href="#an" transform="matrix(1,0,0,1,849.7187281045365,841.6940558397459) translate(0 14.4)"/></g><g><use xlink:href="#ap" transform="matrix(1,0,0,1,937.2316745803885,974.4000000000001) translate(0 14.4)"/></g><path d="M1198.5 340h-190.9" stroke="#333" fill="none"/><path d="M1199 340.5h-.5v-1h.5" fill="#333"/><path d="M977.93 340l14.85-14.85 15.15 14.85-15.15 14.85z" stroke="#333" fill="#333"/><g><use xlink:href="#an" transform="matrix(1,0,0,1,1177.3028257217984,314.40000000000003) translate(0 14.4)"/></g><g><use xlink:href="#an" transform="matrix(1,0,0,1,1009.2686004101467,314.4) translate(0 14.4)"/></g><path d="M220 960h300v154H220z" stroke="#333" stroke-width="2" fill="#fff"/><path d="M220 997.6h300m-300 58.1h300" stroke="#333" stroke-width="2" fill="none"/><g><use xlink:href="#aq" transform="matrix(1,0,0,1,228,968) translate(106.1 14.6)"/></g><path d="M370 958.5V839.37" stroke="#333" fill="none"/><path d="M370.5 959h-1v-.5h1" fill="#333"/><path d="M370 809.7l14.85 14.86L370 839.7l-14.85-15.14z" stroke="#333" fill="#333"/><g><use xlink:href="#an" transform="matrix(1,0,0,1,378,937.6113587608213) translate(0 14.4)"/></g><g><use xlink:href="#an" transform="matrix(1,0,0,1,352,861.8371159843633) translate(0 14.4)"/></g><defs><path fill="#333" d="M67-125c0 54 23 88 75 88 28 0 53-7 68-21v-34h-60v-39h108v91C232-14 192 4 140 4 58 4 20-42 15-125 8-236 126-280 215-234c19 10 29 26 37 47l-47 15c-11-23-29-39-63-39-53 1-75 33-75 86" id="ar"/><path fill="#333" d="M133-34C117-15 103 5 69 4 32 3 11-16 11-54c-1-60 55-63 116-61 1-26-3-47-28-47-18 1-26 9-28 27l-52-2c7-38 36-58 82-57s74 22 75 68l1 82c-1 14 12 18 25 15v27c-30 8-71 5-69-32zm-48 3c29 0 43-24 42-57-32 0-66-3-65 30 0 17 8 27 23 27" id="as"/><path fill="#333" d="M220-157c-53 9-28 100-34 157h-49v-107c1-27-5-49-29-50C55-147 81-57 75 0H25l-1-190h47c2 12-1 28 3 38 10-53 101-56 108 0 13-22 24-43 59-42 82 1 51 116 57 194h-49v-107c-1-25-5-48-29-50" id="at"/><path fill="#333" d="M185-48c-13 30-37 53-82 52C43 2 14-33 14-96s30-98 90-98c62 0 83 45 84 108H66c0 31 8 55 39 56 18 0 30-7 34-22zm-45-69c5-46-57-63-70-21-2 6-4 13-4 21h74" id="au"/><g id="a"><use transform="matrix(0.05,0,0,0.05,0,0)" xlink:href="#ar"/><use transform="matrix(0.05,0,0,0.05,14,0)" xlink:href="#as"/><use transform="matrix(0.05,0,0,0.05,24,0)" xlink:href="#at"/><use transform="matrix(0.05,0,0,0.05,40,0)" xlink:href="#au"/></g><path fill="#333" d="M118-107v75H92v-75H18v-26h74v-75h26v75h74v26h-74" id="av"/><use transform="matrix(0.05,0,0,0.05,0,0)" xlink:href="#av" id="b"/><path fill="#333" d="M115-194c55 1 70 41 70 98S169 2 115 4C84 4 66-9 55-30l1 105H24l-1-265h31l2 30c10-21 28-34 59-34zm-8 174c40 0 45-34 45-75s-6-73-45-74c-42 0-51 32-51 76 0 43 10 73 51 73" id="aw"/><path fill="#333" d="M24 0v-261h32V0H24" id="ax"/><path fill="#333" d="M141-36C126-15 110 5 73 4 37 3 15-17 15-53c-1-64 63-63 125-63 3-35-9-54-41-54-24 1-41 7-42 31l-33-3c5-37 33-52 76-52 45 0 72 20 72 64v82c-1 20 7 32 28 27v20c-31 9-61-2-59-35zM48-53c0 20 12 33 32 33 41-3 63-29 60-74-43 2-92-5-92 41" id="ay"/><path fill="#333" d="M179-190L93 31C79 59 56 82 12 73V49c39 6 53-20 64-50L1-190h34L92-34l54-156h33" id="az"/><path fill="#333" d="M100-194c63 0 86 42 84 106H49c0 40 14 67 53 68 26 1 43-12 49-29l28 8c-11 28-37 45-77 45C44 4 14-33 15-96c1-61 26-98 85-98zm52 81c6-60-76-77-97-28-3 7-6 17-6 28h103" id="aA"/><path fill="#333" d="M114-163C36-179 61-72 57 0H25l-1-190h30c1 12-1 29 2 39 6-27 23-49 58-41v29" id="aB"/><g id="c"><use transform="matrix(0.05,0,0,0.05,0,0)" xlink:href="#aw"/><use transform="matrix(0.05,0,0,0.05,10,0)" xlink:href="#ax"/><use transform="matrix(0.05,0,0,0.05,13.949999999999998,0)" xlink:href="#ay"/><use transform="matrix(0.05,0,0,0.05,23.95,0)" xlink:href="#az"/><use transform="matrix(0.05,0,0,0.05,32.95,0)" xlink:href="#aA"/><use transform="matrix(0.05,0,0,0.05,42.95,0)" xlink:href="#aB"/></g><path fill="#333" d="M33-154v-36h34v36H33zM33 0v-36h34V0H33" id="aC"/><use transform="matrix(0.05,0,0,0.05,0,0)" xlink:href="#aC" id="d"/><path fill="#333" d="M30-248c87 1 191-15 191 75 0 78-77 80-158 76V0H30v-248zm33 125c57 0 124 11 124-50 0-59-68-47-124-48v98" id="aD"/><g id="e"><use transform="matrix(0.05,0,0,0.05,0,0)" xlink:href="#aD"/><use transform="matrix(0.05,0,0,0.05,12,0)" xlink:href="#ax"/><use transform="matrix(0.05,0,0,0.05,15.949999999999998,0)" xlink:href="#ay"/><use transform="matrix(0.05,0,0,0.05,25.950000000000003,0)" xlink:href="#az"/><use transform="matrix(0.05,0,0,0.05,34.95,0)" xlink:href="#aA"/><use transform="matrix(0.05,0,0,0.05,44.95,0)" xlink:href="#aB"/></g><use transform="matrix(0.05,0,0,0.05,0,0)" xlink:href="#av" id="f"/><path fill="#333" d="M24-231v-30h32v30H24zM24 0v-190h32V0H24" id="aE"/><g id="g"><use transform="matrix(0.05,0,0,0.05,0,0)" xlink:href="#aE"/><use transform="matrix(0.05,0,0,0.05,3.95,0)" xlink:href="#ay"/></g><g id="h"><use transform="matrix(0.05,0,0,0.05,0,0)" xlink:href="#aD"/><use transform="matrix(0.05,0,0,0.05,12,0)" xlink:href="#ax"/><use transform="matrix(0.05,0,0,0.05,15.949999999999998,0)" xlink:href="#ay"/><use transform="matrix(0.05,0,0,0.05,25.950000000000003,0)" xlink:href="#az"/><use transform="matrix(0.05,0,0,0.05,34.95,0)" xlink:href="#aA"/><use transform="matrix(0.05,0,0,0.05,44.95,0)" xlink:href="#aB"/></g><path fill="#333" d="M85-194c31 0 48 13 60 33l-1-100h32l1 261h-30c-2-10 0-23-3-31C134-8 116 4 85 4 32 4 16-35 15-94c0-66 23-100 70-100zm9 24c-40 0-46 34-46 75 0 40 6 74 45 74 42 0 51-32 51-76 0-42-9-74-50-73" id="aF"/><path fill="#333" d="M96-169c-40 0-48 33-48 73s9 75 48 75c24 0 41-14 43-38l32 2c-6 37-31 61-74 61-59 0-76-41-82-99-10-93 101-131 147-64 4 7 5 14 7 22l-32 3c-4-21-16-35-41-35" id="aG"/><path fill="#333" d="M143 0L79-87 56-68V0H24v-261h32v163l83-92h37l-77 82L181 0h-38" id="aH"/><g id="i"><use transform="matrix(0.05,0,0,0.05,0,0)" xlink:href="#aF"/><use transform="matrix(0.05,0,0,0.05,10,0)" xlink:href="#aA"/><use transform="matrix(0.05,0,0,0.05,20,0)" xlink:href="#aG"/><use transform="matrix(0.05,0,0,0.05,29,0)" xlink:href="#aH"/></g><path fill="#333" d="M212-179c-10-28-35-45-73-45-59 0-87 40-87 99 0 60 29 101 89 101 43 0 62-24 78-52l27 14C228-24 195 4 139 4 59 4 22-46 18-125c-6-104 99-153 187-111 19 9 31 26 39 46" id="aI"/><path fill="#333" d="M30-248c118-7 216 8 213 122C240-48 200 0 122 0H30v-248zM63-27c89 8 146-16 146-99s-60-101-146-95v194" id="aJ"/><g id="j"><use transform="matrix(0.05,0,0,0.05,0,0)" xlink:href="#aI"/><use transform="matrix(0.05,0,0,0.05,12.950000000000001,0)" xlink:href="#ay"/><use transform="matrix(0.05,0,0,0.05,22.950000000000003,0)" xlink:href="#aB"/><use transform="matrix(0.05,0,0,0.05,28.900000000000002,0)" xlink:href="#aF"/><use transform="matrix(0.05,0,0,0.05,38.900000000000006,0)" xlink:href="#aJ"/><use transform="matrix(0.05,0,0,0.05,51.85,0)" xlink:href="#aA"/><use transform="matrix(0.05,0,0,0.05,61.85,0)" xlink:href="#aG"/><use transform="matrix(0.05,0,0,0.05,70.85000000000001,0)" xlink:href="#aH"/></g><path fill="#333" d="M233-177c-1 41-23 64-60 70L243 0h-38l-65-103H63V0H30v-248c88 3 205-21 203 71zM63-129c60-2 137 13 137-47 0-61-80-42-137-45v92" id="aK"/><path fill="#333" d="M84 4C-5 8 30-112 23-190h32v120c0 31 7 50 39 49 72-2 45-101 50-169h31l1 190h-30c-1-10 1-25-2-33-11 22-28 36-60 37" id="aL"/><path fill="#333" d="M117-194c89-4 53 116 60 194h-32v-121c0-31-8-49-39-48C34-167 62-67 57 0H25l-1-190h30c1 10-1 24 2 32 11-22 29-35 61-36" id="aM"/><path fill="#333" d="M205 0l-28-72H64L36 0H1l101-248h38L239 0h-34zm-38-99l-47-123c-12 45-31 82-46 123h93" id="aN"/><path fill="#333" d="M100-194c62-1 85 37 85 99 1 63-27 99-86 99S16-35 15-95c0-66 28-99 85-99zM99-20c44 1 53-31 53-75 0-43-8-75-51-75s-53 32-53 75 10 74 51 75" id="aO"/><path fill="#333" d="M87 75C49 33 22-17 22-94c0-76 28-126 65-167h31c-38 41-64 92-64 168S80 34 118 75H87" id="aP"/><path fill="#333" d="M33-261c38 41 65 92 65 168S71 34 33 75H2C39 34 66-17 66-93S39-220 2-261h31" id="aQ"/><g id="k"><use transform="matrix(0.05,0,0,0.05,0,0)" xlink:href="#aK"/><use transform="matrix(0.05,0,0,0.05,12.950000000000001,0)" xlink:href="#aL"/><use transform="matrix(0.05,0,0,0.05,22.950000000000003,0)" xlink:href="#aM"/><use transform="matrix(0.05,0,0,0.05,32.95,0)" xlink:href="#aN"/><use transform="matrix(0.05,0,0,0.05,44.95,0)" xlink:href="#aK"/><use transform="matrix(0.05,0,0,0.05,57.900000000000006,0)" xlink:href="#aO"/><use transform="matrix(0.05,0,0,0.05,67.9,0)" xlink:href="#aL"/><use transform="matrix(0.05,0,0,0.05,77.9,0)" xlink:href="#aM"/><use transform="matrix(0.05,0,0,0.05,87.9,0)" xlink:href="#aF"/><use transform="matrix(0.05,0,0,0.05,97.9,0)" xlink:href="#aP"/><use transform="matrix(0.05,0,0,0.05,103.85000000000001,0)" xlink:href="#aQ"/></g><path fill="#333" d="M108 0H70L1-190h34L89-25l56-165h34" id="aR"/><g id="l"><use transform="matrix(0.05,0,0,0.05,0,0)" xlink:href="#aR"/><use transform="matrix(0.05,0,0,0.05,9,0)" xlink:href="#aO"/><use transform="matrix(0.05,0,0,0.05,19,0)" xlink:href="#aE"/><use transform="matrix(0.05,0,0,0.05,22.95,0)" xlink:href="#aF"/></g><path fill="#333" d="M135-143c-3-34-86-38-87 0 15 53 115 12 119 90S17 21 10-45l28-5c4 36 97 45 98 0-10-56-113-15-118-90-4-57 82-63 122-42 12 7 21 19 24 35" id="aS"/><g id="m"><use transform="matrix(0.05,0,0,0.05,0,0)" xlink:href="#aJ"/><use transform="matrix(0.05,0,0,0.05,12.950000000000001,0)" xlink:href="#aE"/><use transform="matrix(0.05,0,0,0.05,16.900000000000002,0)" xlink:href="#aS"/><use transform="matrix(0.05,0,0,0.05,25.900000000000002,0)" xlink:href="#aw"/><use transform="matrix(0.05,0,0,0.05,35.900000000000006,0)" xlink:href="#ax"/><use transform="matrix(0.05,0,0,0.05,39.85000000000001,0)" xlink:href="#ay"/><use transform="matrix(0.05,0,0,0.05,49.85000000000001,0)" xlink:href="#az"/><use transform="matrix(0.05,0,0,0.05,58.85,0)" xlink:href="#aK"/><use transform="matrix(0.05,0,0,0.05,71.80000000000001,0)" xlink:href="#aO"/><use transform="matrix(0.05,0,0,0.05,81.80000000000001,0)" xlink:href="#aL"/><use transform="matrix(0.05,0,0,0.05,91.80000000000001,0)" xlink:href="#aM"/><use transform="matrix(0.05,0,0,0.05,101.80000000000001,0)" xlink:href="#aF"/><use transform="matrix(0.05,0,0,0.05,111.80000000000001,0)" xlink:href="#aP"/><use transform="matrix(0.05,0,0,0.05,117.75,0)" xlink:href="#aQ"/></g><g id="n"><use transform="matrix(0.05,0,0,0.05,0,0)" xlink:href="#aR"/><use transform="matrix(0.05,0,0,0.05,9,0)" xlink:href="#aO"/><use transform="matrix(0.05,0,0,0.05,19,0)" xlink:href="#aE"/><use transform="matrix(0.05,0,0,0.05,22.95,0)" xlink:href="#aF"/></g><path fill="#333" d="M127-220V0H93v-220H8v-28h204v28h-85" id="aT"/><path fill="#333" d="M185-189c-5-48-123-54-124 2 14 75 158 14 163 119 3 78-121 87-175 55-17-10-28-26-33-46l33-7c5 56 141 63 141-1 0-78-155-14-162-118-5-82 145-84 179-34 5 7 8 16 11 25" id="aU"/><path fill="#333" d="M59-47c-2 24 18 29 38 22v24C64 9 27 4 27-40v-127H5v-23h24l9-43h21v43h35v23H59v120" id="aV"/><path fill="#333" d="M177-190C167-65 218 103 67 71c-23-6-38-20-44-43l32-5c15 47 100 32 89-28v-30C133-14 115 1 83 1 29 1 15-40 15-95c0-56 16-97 71-98 29-1 48 16 59 35 1-10 0-23 2-32h30zM94-22c36 0 50-32 50-73 0-42-14-75-50-75-39 0-46 34-46 75s6 73 46 73" id="aW"/><g id="o"><use transform="matrix(0.05,0,0,0.05,0,0)" xlink:href="#aT"/><use transform="matrix(0.05,0,0,0.05,8.950000000000001,0)" xlink:href="#aO"/><use transform="matrix(0.05,0,0,0.05,18.950000000000003,0)" xlink:href="#aU"/><use transform="matrix(0.05,0,0,0.05,30.950000000000003,0)" xlink:href="#aV"/><use transform="matrix(0.05,0,0,0.05,35.95,0)" xlink:href="#aB"/><use transform="matrix(0.05,0,0,0.05,41.900000000000006,0)" xlink:href="#aE"/><use transform="matrix(0.05,0,0,0.05,45.85000000000001,0)" xlink:href="#aM"/><use transform="matrix(0.05,0,0,0.05,55.85,0)" xlink:href="#aW"/><use transform="matrix(0.05,0,0,0.05,65.85000000000001,0)" xlink:href="#aP"/><use transform="matrix(0.05,0,0,0.05,71.80000000000001,0)" xlink:href="#aQ"/></g><g id="p"><use transform="matrix(0.05,0,0,0.05,0,0)" xlink:href="#aS"/><use transform="matrix(0.05,0,0,0.05,9,0)" xlink:href="#aV"/><use transform="matrix(0.05,0,0,0.05,14,0)" xlink:href="#aB"/><use transform="matrix(0.05,0,0,0.05,19.95,0)" xlink:href="#aE"/><use transform="matrix(0.05,0,0,0.05,23.9,0)" xlink:href="#aM"/><use transform="matrix(0.05,0,0,0.05,33.9,0)" xlink:href="#aW"/></g><path fill="#a9afb8" d="M24-248c120-7 223 5 221 122C244-46 201 0 124 0H24v-248zM76-40c74 7 117-18 117-86 0-67-45-88-117-82v168" id="aX"/><path fill="#a9afb8" d="M25-224v-37h50v37H25zM25 0v-190h50V0H25" id="aY"/><path fill="#a9afb8" d="M133-34C117-15 103 5 69 4 32 3 11-16 11-54c-1-60 55-63 116-61 1-26-3-47-28-47-18 1-26 9-28 27l-52-2c7-38 36-58 82-57s74 22 75 68l1 82c-1 14 12 18 25 15v27c-30 8-71 5-69-32zm-48 3c29 0 43-24 42-57-32 0-66-3-65 30 0 17 8 27 23 27" id="aZ"/><path fill="#a9afb8" d="M195-6C206 82 75 100 31 46c-4-6-6-13-8-21l49-6c3 16 16 24 34 25 40 0 42-37 40-79-11 22-30 35-61 35-53 0-70-43-70-97 0-56 18-96 73-97 30 0 46 14 59 34l2-30h47zm-90-29c32 0 41-27 41-63 0-35-9-62-40-62-32 0-39 29-40 63 0 36 9 62 39 62" id="ba"/><path fill="#a9afb8" d="M135-150c-39-12-60 13-60 57V0H25l-1-190h47c2 13-1 29 3 40 6-28 27-53 61-41v41" id="bb"/><path fill="#a9afb8" d="M220-157c-53 9-28 100-34 157h-49v-107c1-27-5-49-29-50C55-147 81-57 75 0H25l-1-190h47c2 12-1 28 3 38 10-53 101-56 108 0 13-22 24-43 59-42 82 1 51 116 57 194h-49v-107c-1-25-5-48-29-50" id="bc"/><path fill="#a9afb8" d="M185-48c-13 30-37 53-82 52C43 2 14-33 14-96s30-98 90-98c62 0 83 45 84 108H66c0 31 8 55 39 56 18 0 30-7 34-22zm-45-69c5-46-57-63-70-21-2 6-4 13-4 21h74" id="bd"/><g id="q"><use transform="matrix(0.0728395061728395,0,0,0.0728395061728395,0,0)" xlink:href="#aX"/><use transform="matrix(0.0728395061728395,0,0,0.0728395061728395,18.86543209876543,0)" xlink:href="#aY"/><use transform="matrix(0.0728395061728395,0,0,0.0728395061728395,26.14938271604938,0)" xlink:href="#aZ"/><use transform="matrix(0.0728395061728395,0,0,0.0728395061728395,40.717283950617286,0)" xlink:href="#ba"/><use transform="matrix(0.0728395061728395,0,0,0.0728395061728395,56.66913580246913,0)" xlink:href="#bb"/><use transform="matrix(0.0728395061728395,0,0,0.0728395061728395,66.86666666666666,0)" xlink:href="#aZ"/><use transform="matrix(0.0728395061728395,0,0,0.0728395061728395,81.43456790123457,0)" xlink:href="#bc"/><use transform="matrix(0.0728395061728395,0,0,0.0728395061728395,104.7432098765432,0)" xlink:href="#bc"/><use transform="matrix(0.0728395061728395,0,0,0.0728395061728395,128.05185185185184,0)" xlink:href="#bd"/></g><path fill="#a9afb8" d="M238-95c0 69-44 99-111 99C63 4 22-25 22-93v-155h51v151c-1 38 19 59 55 60 90 1 49-130 58-211h52v153" id="be"/><path fill="#a9afb8" d="M230 0l2-204L168 0h-37L68-204 70 0H24v-248h70l56 185 57-185h69V0h-46" id="bf"/><path fill="#a9afb8" d="M24 0v-248h52v208h133V0H24" id="bg"/><g id="r"><use transform="matrix(0.0728395061728395,0,0,0.0728395061728395,0,0)" xlink:href="#be"/><use transform="matrix(0.0728395061728395,0,0,0.0728395061728395,18.86543209876543,0)" xlink:href="#bf"/><use transform="matrix(0.0728395061728395,0,0,0.0728395061728395,40.644444444444446,0)" xlink:href="#bg"/></g><path fill="#a9afb8" d="M135-194c87-1 58 113 63 194h-50c-7-57 23-157-34-157-59 0-34 97-39 157H25l-1-190h47c2 12-1 28 3 38 12-26 28-41 61-42" id="bh"/><path fill="#a9afb8" d="M128 0H69L1-190h53L99-40l48-150h52" id="bi"/><path fill="#a9afb8" d="M25 0v-261h50V0H25" id="bj"/><g id="s"><use transform="matrix(0.0728395061728395,0,0,0.0728395061728395,0,0)" xlink:href="#bf"/><use transform="matrix(0.0728395061728395,0,0,0.0728395061728395,21.77901234567901,0)" xlink:href="#aY"/><use transform="matrix(0.0728395061728395,0,0,0.0728395061728395,29.06296296296296,0)" xlink:href="#bh"/><use transform="matrix(0.0728395061728395,0,0,0.0728395061728395,45.01481481481481,0)" xlink:href="#aY"/><use transform="matrix(0.0728395061728395,0,0,0.0728395061728395,52.29876543209876,0)" xlink:href="#bi"/><use transform="matrix(0.0728395061728395,0,0,0.0728395061728395,66.86666666666666,0)" xlink:href="#aY"/><use transform="matrix(0.0728395061728395,0,0,0.0728395061728395,74.15061728395061,0)" xlink:href="#bj"/><use transform="matrix(0.0728395061728395,0,0,0.0728395061728395,81.43456790123457,0)" xlink:href="#bj"/><use transform="matrix(0.0728395061728395,0,0,0.0728395061728395,88.7185185185185,0)" xlink:href="#bd"/></g><path fill="#a9afb8" d="M30-248c87 1 191-15 191 75 0 78-77 80-158 76V0H30v-248zm33 125c57 0 124 11 124-50 0-59-68-47-124-48v98" id="bk"/><path fill="#a9afb8" d="M141-36C126-15 110 5 73 4 37 3 15-17 15-53c-1-64 63-63 125-63 3-35-9-54-41-54-24 1-41 7-42 31l-33-3c5-37 33-52 76-52 45 0 72 20 72 64v82c-1 20 7 32 28 27v20c-31 9-61-2-59-35zM48-53c0 20 12 33 32 33 41-3 63-29 60-74-43 2-92-5-92 41" id="bl"/><path fill="#a9afb8" d="M84 4C-5 8 30-112 23-190h32v120c0 31 7 50 39 49 72-2 45-101 50-169h31l1 190h-30c-1-10 1-25-2-33-11 22-28 36-60 37" id="bm"/><path fill="#a9afb8" d="M24 0v-261h32V0H24" id="bn"/><g id="t"><use transform="matrix(0.04248971193415638,0,0,0.04248971193415638,0,0)" xlink:href="#bk"/><use transform="matrix(0.04248971193415638,0,0,0.04248971193415638,10.19753086419753,0)" xlink:href="#bl"/><use transform="matrix(0.04248971193415638,0,0,0.04248971193415638,18.695473251028805,0)" xlink:href="#bm"/><use transform="matrix(0.04248971193415638,0,0,0.04248971193415638,27.193415637860078,0)" xlink:href="#bn"/></g><path fill="#a9afb8" d="M30 0v-248h33v221h125V0H30" id="bo"/><path fill="#a9afb8" d="M117-194c89-4 53 116 60 194h-32v-121c0-31-8-49-39-48C34-167 62-67 57 0H25l-1-190h30c1 10-1 24 2 32 11-22 29-35 61-36" id="bp"/><path fill="#a9afb8" d="M100-194c63 0 86 42 84 106H49c0 40 14 67 53 68 26 1 43-12 49-29l28 8c-11 28-37 45-77 45C44 4 14-33 15-96c1-61 26-98 85-98zm52 81c6-60-76-77-97-28-3 7-6 17-6 28h103" id="bq"/><g id="u"><use transform="matrix(0.04248971193415638,0,0,0.04248971193415638,0,0)" xlink:href="#bo"/><use transform="matrix(0.04248971193415638,0,0,0.04248971193415638,8.497942386831275,0)" xlink:href="#bm"/><use transform="matrix(0.04248971193415638,0,0,0.04248971193415638,16.99588477366255,0)" xlink:href="#bp"/><use transform="matrix(0.04248971193415638,0,0,0.04248971193415638,25.493827160493822,0)" xlink:href="#bq"/><use transform="matrix(0.04248971193415638,0,0,0.04248971193415638,33.9917695473251,0)" xlink:href="#bl"/><use transform="matrix(0.04248971193415638,0,0,0.04248971193415638,42.489711934156375,0)" xlink:href="#bm"/></g><path fill="#a9afb8" d="M32 76v-337h29V76H32" id="br"/><use transform="matrix(0.04248971193415638,0,0,0.04248971193415638,0,0)" xlink:href="#br" id="v"/><path fill="#a9afb8" d="M190 0L58-211 59 0H30v-248h39L202-35l-2-213h31V0h-41" id="bs"/><path fill="#a9afb8" d="M100-194c62-1 85 37 85 99 1 63-27 99-86 99S16-35 15-95c0-66 28-99 85-99zM99-20c44 1 53-31 53-75 0-43-8-75-51-75s-53 32-53 75 10 74 51 75" id="bt"/><path fill="#a9afb8" d="M108 0H70L1-190h34L89-25l56-165h34" id="bu"/><path fill="#a9afb8" d="M210-169c-67 3-38 105-44 169h-31v-121c0-29-5-50-35-48C34-165 62-65 56 0H25l-1-190h30c1 10-1 24 2 32 10-44 99-50 107 0 11-21 27-35 58-36 85-2 47 119 55 194h-31v-121c0-29-5-49-35-48" id="bv"/><path fill="#a9afb8" d="M115-194c53 0 69 39 70 98 0 66-23 100-70 100C84 3 66-7 56-30L54 0H23l1-261h32v101c10-23 28-34 59-34zm-8 174c40 0 45-34 45-75 0-40-5-75-45-74-42 0-51 32-51 76 0 43 10 73 51 73" id="bw"/><path fill="#a9afb8" d="M114-163C36-179 61-72 57 0H25l-1-190h30c1 12-1 29 2 39 6-27 23-49 58-41v29" id="bx"/><g id="w"><use transform="matrix(0.04248971193415638,0,0,0.04248971193415638,0,0)" xlink:href="#bs"/><use transform="matrix(0.04248971193415638,0,0,0.04248971193415638,11.004835390946502,0)" xlink:href="#bt"/><use transform="matrix(0.04248971193415638,0,0,0.04248971193415638,19.502777777777776,0)" xlink:href="#bu"/><use transform="matrix(0.04248971193415638,0,0,0.04248971193415638,27.150925925925925,0)" xlink:href="#bq"/><use transform="matrix(0.04248971193415638,0,0,0.04248971193415638,35.6488683127572,0)" xlink:href="#bv"/><use transform="matrix(0.04248971193415638,0,0,0.04248971193415638,48.35329218106995,0)" xlink:href="#bw"/><use transform="matrix(0.04248971193415638,0,0,0.04248971193415638,56.851234567901244,0)" xlink:href="#bq"/><use transform="matrix(0.04248971193415638,0,0,0.04248971193415638,65.34917695473251,0)" xlink:href="#bx"/></g><path fill="#a9afb8" d="M134-131c28 9 52 24 51 62-1 50-34 73-85 73S17-19 16-69c0-36 21-54 49-61-75-25-45-126 34-121 46 3 78 18 79 63 0 33-17 51-44 57zm-34-11c31 1 46-15 46-44 0-28-17-43-47-42-29 0-46 13-45 42 1 28 16 44 46 44zm1 122c35 0 51-18 51-52 0-30-18-46-53-46-33 0-51 17-51 47 0 34 19 51 53 51" id="by"/><path fill="#a9afb8" d="M68-38c1 34 0 65-14 84H32c9-13 17-26 17-46H33v-38h35" id="bz"/><g id="x"><use transform="matrix(0.04248971193415638,0,0,0.04248971193415638,0,0)" xlink:href="#by"/><use transform="matrix(0.04248971193415638,0,0,0.04248971193415638,8.497942386831275,0)" xlink:href="#bz"/></g><path fill="#a9afb8" d="M101-251c82-7 93 87 43 132L82-64C71-53 59-42 53-27h129V0H18c2-99 128-94 128-182 0-28-16-43-45-43s-46 15-49 41l-32-3c6-41 34-60 81-64" id="bA"/><path fill="#a9afb8" d="M101-251c68 0 85 55 85 127S166 4 100 4C33 4 14-52 14-124c0-73 17-127 87-127zm-1 229c47 0 54-49 54-102s-4-102-53-102c-51 0-55 48-55 102 0 53 5 102 54 102" id="bB"/><path fill="#a9afb8" d="M27 0v-27h64v-190l-56 39v-29l58-41h29v221h61V0H27" id="bC"/><g id="y"><use transform="matrix(0.04248971193415638,0,0,0.04248971193415638,0,0)" xlink:href="#bA"/><use transform="matrix(0.04248971193415638,0,0,0.04248971193415638,8.497942386831275,0)" xlink:href="#bB"/><use transform="matrix(0.04248971193415638,0,0,0.04248971193415638,16.99588477366255,0)" xlink:href="#bA"/><use transform="matrix(0.04248971193415638,0,0,0.04248971193415638,25.493827160493822,0)" xlink:href="#bC"/></g><path fill="#333" d="M24-248c93 1 206-16 204 79-1 75-69 88-152 82V0H24v-248zm52 121c47 0 100 7 100-41 0-47-54-39-100-39v80" id="bD"/><path fill="#333" d="M25 0v-261h50V0H25" id="bE"/><path fill="#333" d="M123 10C108 53 80 86 19 72V37c35 8 53-11 59-39L3-190h52l48 148c12-52 28-100 44-148h51" id="bF"/><path fill="#333" d="M135-150c-39-12-60 13-60 57V0H25l-1-190h47c2 13-1 29 3 40 6-28 27-53 61-41v41" id="bG"/><g id="z"><use transform="matrix(0.05,0,0,0.05,0,0)" xlink:href="#bD"/><use transform="matrix(0.05,0,0,0.05,12,0)" xlink:href="#bE"/><use transform="matrix(0.05,0,0,0.05,17,0)" xlink:href="#as"/><use transform="matrix(0.05,0,0,0.05,27,0)" xlink:href="#bF"/><use transform="matrix(0.05,0,0,0.05,37,0)" xlink:href="#au"/><use transform="matrix(0.05,0,0,0.05,47,0)" xlink:href="#bG"/></g><path fill="#333" d="M115-194c53 0 69 39 70 98 0 66-23 100-70 100C84 3 66-7 56-30L54 0H23l1-261h32v101c10-23 28-34 59-34zm-8 174c40 0 45-34 45-75 0-40-5-75-45-74-42 0-51 32-51 76 0 43 10 73 51 73" id="bH"/><g id="A"><use transform="matrix(0.05,0,0,0.05,0,0)" xlink:href="#aM"/><use transform="matrix(0.05,0,0,0.05,10,0)" xlink:href="#bH"/><use transform="matrix(0.05,0,0,0.05,20,0)" xlink:href="#aI"/><use transform="matrix(0.05,0,0,0.05,32.95,0)" xlink:href="#aO"/><use transform="matrix(0.05,0,0,0.05,42.95,0)" xlink:href="#aE"/><use transform="matrix(0.05,0,0,0.05,46.900000000000006,0)" xlink:href="#aM"/><use transform="matrix(0.05,0,0,0.05,56.900000000000006,0)" xlink:href="#aS"/></g><g id="B"><use transform="matrix(0.05,0,0,0.05,0,0)" xlink:href="#aE"/><use transform="matrix(0.05,0,0,0.05,3.95,0)" xlink:href="#aM"/><use transform="matrix(0.05,0,0,0.05,13.949999999999998,0)" xlink:href="#aV"/></g><path fill="#333" d="M18-150v-26h174v26H18zm0 90v-26h174v26H18" id="bI"/><use transform="matrix(0.05,0,0,0.05,0,0)" xlink:href="#bI" id="C"/><path fill="#333" d="M126-127c33 6 58 20 58 59 0 88-139 92-164 29-3-8-5-16-6-25l32-3c6 27 21 44 54 44 32 0 52-15 52-46 0-38-36-46-79-43v-28c39 1 72-4 72-42 0-27-17-43-46-43-28 0-47 15-49 41l-32-3c6-42 35-63 81-64 48-1 79 21 79 65 0 36-21 52-52 59" id="bJ"/><use transform="matrix(0.05,0,0,0.05,0,0)" xlink:href="#bJ" id="D"/><g id="E"><use transform="matrix(0.05,0,0,0.05,0,0)" xlink:href="#aG"/><use transform="matrix(0.05,0,0,0.05,9,0)" xlink:href="#aE"/><use transform="matrix(0.05,0,0,0.05,12.949999999999998,0)" xlink:href="#aV"/><use transform="matrix(0.05,0,0,0.05,17.95,0)" xlink:href="#az"/></g><path fill="#333" d="M30 0v-248h33v221h125V0H30" id="bK"/><path fill="#333" d="M18-100v-36l175-74v27L42-118l151 64v27" id="bL"/><path fill="#333" d="M18-27v-27l151-64-151-65v-27l175 74v36" id="bM"/><g id="F"><use transform="matrix(0.05,0,0,0.05,0,0)" xlink:href="#bK"/><use transform="matrix(0.05,0,0,0.05,10,0)" xlink:href="#aE"/><use transform="matrix(0.05,0,0,0.05,13.949999999999998,0)" xlink:href="#aS"/><use transform="matrix(0.05,0,0,0.05,22.95,0)" xlink:href="#aV"/><use transform="matrix(0.05,0,0,0.05,27.950000000000003,0)" xlink:href="#bL"/><use transform="matrix(0.05,0,0,0.05,38.45,0)" xlink:href="#aI"/><use transform="matrix(0.05,0,0,0.05,51.400000000000006,0)" xlink:href="#ay"/><use transform="matrix(0.05,0,0,0.05,61.400000000000006,0)" xlink:href="#aB"/><use transform="matrix(0.05,0,0,0.05,67.35000000000001,0)" xlink:href="#aF"/><use transform="matrix(0.05,0,0,0.05,77.35000000000001,0)" xlink:href="#bM"/></g><g id="G"><use transform="matrix(0.05,0,0,0.05,0,0)" xlink:href="#aF"/><use transform="matrix(0.05,0,0,0.05,10,0)" xlink:href="#aE"/><use transform="matrix(0.05,0,0,0.05,13.949999999999998,0)" xlink:href="#aG"/><use transform="matrix(0.05,0,0,0.05,22.95,0)" xlink:href="#aA"/></g><g id="H"><use transform="matrix(0.05,0,0,0.05,0,0)" xlink:href="#aJ"/><use transform="matrix(0.05,0,0,0.05,12.950000000000001,0)" xlink:href="#aE"/><use transform="matrix(0.05,0,0,0.05,16.900000000000002,0)" xlink:href="#aG"/><use transform="matrix(0.05,0,0,0.05,25.900000000000002,0)" xlink:href="#aA"/></g><path fill="#333" d="M160-131c35 5 61 23 61 61C221 17 115-2 30 0v-248c76 3 177-17 177 60 0 33-19 50-47 57zm-97-11c50-1 110 9 110-42 0-47-63-36-110-37v79zm0 115c55-2 124 14 124-45 0-56-70-42-124-44v89" id="bN"/><g id="I"><use transform="matrix(0.05,0,0,0.05,0,0)" xlink:href="#bN"/><use transform="matrix(0.05,0,0,0.05,12,0)" xlink:href="#aL"/><use transform="matrix(0.05,0,0,0.05,22,0)" xlink:href="#az"/><use transform="matrix(0.05,0,0,0.05,31,0)" xlink:href="#aI"/><use transform="matrix(0.05,0,0,0.05,43.95,0)" xlink:href="#ay"/><use transform="matrix(0.05,0,0,0.05,53.95,0)" xlink:href="#aB"/><use transform="matrix(0.05,0,0,0.05,59.900000000000006,0)" xlink:href="#aF"/></g><g id="J"><use transform="matrix(0.05,0,0,0.05,0,0)" xlink:href="#aP"/><use transform="matrix(0.05,0,0,0.05,5.95,0)" xlink:href="#aQ"/></g><g id="K"><use transform="matrix(0.05,0,0,0.05,0,0)" xlink:href="#bH"/><use transform="matrix(0.05,0,0,0.05,10,0)" xlink:href="#aO"/><use transform="matrix(0.05,0,0,0.05,20,0)" xlink:href="#aO"/><use transform="matrix(0.05,0,0,0.05,30,0)" xlink:href="#ax"/></g><path fill="#333" d="M103-251c84 0 111 97 45 133-19 10-37 24-39 52H78c0-63 77-55 77-114 0-30-21-42-52-43-32 0-53 17-56 46l-32-2c7-45 34-72 88-72zM77 0v-35h34V0H77" id="bO"/><use transform="matrix(0.05,0,0,0.05,0,0)" xlink:href="#bO" id="L"/><g id="M"><use transform="matrix(0.05,0,0,0.05,0,0)" xlink:href="#aD"/><use transform="matrix(0.05,0,0,0.05,12,0)" xlink:href="#ax"/><use transform="matrix(0.05,0,0,0.05,15.949999999999998,0)" xlink:href="#ay"/><use transform="matrix(0.05,0,0,0.05,25.950000000000003,0)" xlink:href="#az"/></g><g id="N"><use transform="matrix(0.05,0,0,0.05,0,0)" xlink:href="#aR"/><use transform="matrix(0.05,0,0,0.05,9,0)" xlink:href="#aO"/><use transform="matrix(0.05,0,0,0.05,19,0)" xlink:href="#aE"/><use transform="matrix(0.05,0,0,0.05,22.95,0)" xlink:href="#aF"/></g><path fill="#333" d="M67-125c0 53 21 87 73 88 37 1 54-22 65-47l45 17C233-25 199 4 140 4 58 4 20-42 15-125 8-235 124-281 211-232c18 10 29 29 36 50l-46 12c-8-25-30-41-62-41-52 0-71 34-72 86" id="bP"/><path fill="#333" d="M88-194c31-1 46 15 58 34l-1-101h50l1 261h-48c-2-10 0-23-3-31C134-8 116 4 84 4 32 4 16-41 15-95c0-56 19-97 73-99zm17 164c33 0 40-30 41-66 1-37-9-64-41-64s-38 30-39 65c0 43 13 65 39 65" id="bQ"/><path fill="#333" d="M24-248c120-7 223 5 221 122C244-46 201 0 124 0H24v-248zM76-40c74 7 117-18 117-86 0-67-45-88-117-82v168" id="bR"/><path fill="#333" d="M190-63c-7 42-38 67-86 67-59 0-84-38-90-98-12-110 154-137 174-36l-49 2c-2-19-15-32-35-32-30 0-35 28-38 64-6 74 65 87 74 30" id="bS"/><path fill="#333" d="M147 0L96-86 75-71V0H25v-261h50v150l67-79h53l-66 74L201 0h-54" id="bT"/><g id="O"><use transform="matrix(0.05,0,0,0.05,0,0)" xlink:href="#bP"/><use transform="matrix(0.05,0,0,0.05,12.950000000000001,0)" xlink:href="#as"/><use transform="matrix(0.05,0,0,0.05,22.950000000000003,0)" xlink:href="#bG"/><use transform="matrix(0.05,0,0,0.05,29.950000000000003,0)" xlink:href="#bQ"/><use transform="matrix(0.05,0,0,0.05,40.900000000000006,0)" xlink:href="#bR"/><use transform="matrix(0.05,0,0,0.05,53.85,0)" xlink:href="#au"/><use transform="matrix(0.05,0,0,0.05,63.85,0)" xlink:href="#bS"/><use transform="matrix(0.05,0,0,0.05,73.85000000000001,0)" xlink:href="#bT"/></g><g id="P"><use transform="matrix(0.05,0,0,0.05,0,0)" xlink:href="#aG"/><use transform="matrix(0.05,0,0,0.05,9,0)" xlink:href="#ay"/><use transform="matrix(0.05,0,0,0.05,19,0)" xlink:href="#aB"/><use transform="matrix(0.05,0,0,0.05,24.95,0)" xlink:href="#aF"/><use transform="matrix(0.05,0,0,0.05,34.95,0)" xlink:href="#aS"/></g><g id="Q"><use transform="matrix(0.05,0,0,0.05,0,0)" xlink:href="#bK"/><use transform="matrix(0.05,0,0,0.05,10,0)" xlink:href="#aE"/><use transform="matrix(0.05,0,0,0.05,13.949999999999998,0)" xlink:href="#aS"/><use transform="matrix(0.05,0,0,0.05,22.95,0)" xlink:href="#aV"/><use transform="matrix(0.05,0,0,0.05,27.950000000000003,0)" xlink:href="#bL"/><use transform="matrix(0.05,0,0,0.05,38.45,0)" xlink:href="#aI"/><use transform="matrix(0.05,0,0,0.05,51.400000000000006,0)" xlink:href="#ay"/><use transform="matrix(0.05,0,0,0.05,61.400000000000006,0)" xlink:href="#aB"/><use transform="matrix(0.05,0,0,0.05,67.35000000000001,0)" xlink:href="#aF"/><use transform="matrix(0.05,0,0,0.05,77.35000000000001,0)" xlink:href="#bM"/></g><path fill="#333" d="M206 0h-36l-40-164L89 0H53L-1-190h32L70-26l43-164h34l41 164 42-164h31" id="bU"/><g id="R"><use transform="matrix(0.05,0,0,0.05,0,0)" xlink:href="#aJ"/><use transform="matrix(0.05,0,0,0.05,12.950000000000001,0)" xlink:href="#aB"/><use transform="matrix(0.05,0,0,0.05,18.900000000000002,0)" xlink:href="#ay"/><use transform="matrix(0.05,0,0,0.05,28.900000000000002,0)" xlink:href="#bU"/></g><g id="S"><use transform="matrix(0.05,0,0,0.05,0,0)" xlink:href="#aI"/><use transform="matrix(0.05,0,0,0.05,12.950000000000001,0)" xlink:href="#ay"/><use transform="matrix(0.05,0,0,0.05,22.950000000000003,0)" xlink:href="#aB"/><use transform="matrix(0.05,0,0,0.05,28.900000000000002,0)" xlink:href="#aF"/></g><path fill="#333" d="M106-169C34-169 62-67 57 0H25v-261h32l-1 103c12-21 28-36 61-36 89 0 53 116 60 194h-32v-121c2-32-8-49-39-48" id="bV"/><path fill="#333" d="M101-234c-31-9-42 10-38 44h38v23H63V0H32v-167H5v-23h27c-7-52 17-82 69-68v24" id="bW"/><g id="T"><use transform="matrix(0.05,0,0,0.05,0,0)" xlink:href="#aU"/><use transform="matrix(0.05,0,0,0.05,12,0)" xlink:href="#bV"/><use transform="matrix(0.05,0,0,0.05,22,0)" xlink:href="#aL"/><use transform="matrix(0.05,0,0,0.05,32,0)" xlink:href="#bW"/><use transform="matrix(0.05,0,0,0.05,36.65,0)" xlink:href="#bW"/><use transform="matrix(0.05,0,0,0.05,41.65,0)" xlink:href="#ax"/><use transform="matrix(0.05,0,0,0.05,45.6,0)" xlink:href="#aA"/></g><g id="U"><use transform="matrix(0.05,0,0,0.05,0,0)" xlink:href="#av"/><use transform="matrix(0.05,0,0,0.05,10.5,0)" xlink:href="#aT"/><use transform="matrix(0.05,0,0,0.05,19.450000000000003,0)" xlink:href="#aO"/><use transform="matrix(0.05,0,0,0.05,29.450000000000003,0)" xlink:href="#aU"/><use transform="matrix(0.05,0,0,0.05,41.45,0)" xlink:href="#aV"/><use transform="matrix(0.05,0,0,0.05,46.45,0)" xlink:href="#aB"/><use transform="matrix(0.05,0,0,0.05,52.400000000000006,0)" xlink:href="#aE"/><use transform="matrix(0.05,0,0,0.05,56.35,0)" xlink:href="#aM"/><use transform="matrix(0.05,0,0,0.05,66.35000000000001,0)" xlink:href="#aW"/><use transform="matrix(0.05,0,0,0.05,76.35000000000001,0)" xlink:href="#aP"/><use transform="matrix(0.05,0,0,0.05,82.30000000000001,0)" xlink:href="#aQ"/></g><path fill="#333" d="M25-224v-37h50v37H25zM25 0v-190h50V0H25" id="bX"/><g id="V"><use transform="matrix(0.05,0,0,0.05,0,0)" xlink:href="#bR"/><use transform="matrix(0.05,0,0,0.05,12.950000000000001,0)" xlink:href="#bX"/><use transform="matrix(0.05,0,0,0.05,17.950000000000003,0)" xlink:href="#bS"/><use transform="matrix(0.05,0,0,0.05,27.950000000000003,0)" xlink:href="#au"/></g><g id="W"><use transform="matrix(0.05,0,0,0.05,0,0)" xlink:href="#bW"/><use transform="matrix(0.05,0,0,0.05,5,0)" xlink:href="#ay"/><use transform="matrix(0.05,0,0,0.05,15,0)" xlink:href="#aG"/><use transform="matrix(0.05,0,0,0.05,24,0)" xlink:href="#aA"/></g><g id="X"><use transform="matrix(0.05,0,0,0.05,0,0)" xlink:href="#aE"/><use transform="matrix(0.05,0,0,0.05,3.95,0)" xlink:href="#aM"/><use transform="matrix(0.05,0,0,0.05,13.949999999999998,0)" xlink:href="#aV"/></g><g id="Y"><use transform="matrix(0.05,0,0,0.05,0,0)" xlink:href="#aB"/><use transform="matrix(0.05,0,0,0.05,5.95,0)" xlink:href="#aM"/><use transform="matrix(0.05,0,0,0.05,15.949999999999998,0)" xlink:href="#aF"/></g><path fill="#333" d="M210-169c-67 3-38 105-44 169h-31v-121c0-29-5-50-35-48C34-165 62-65 56 0H25l-1-190h30c1 10-1 24 2 32 10-44 99-50 107 0 11-21 27-35 58-36 85-2 47 119 55 194h-31v-121c0-29-5-49-35-48" id="bY"/><g id="Z"><use transform="matrix(0.05,0,0,0.05,0,0)" xlink:href="#aK"/><use transform="matrix(0.05,0,0,0.05,12.950000000000001,0)" xlink:href="#ay"/><use transform="matrix(0.05,0,0,0.05,22.950000000000003,0)" xlink:href="#aM"/><use transform="matrix(0.05,0,0,0.05,32.95,0)" xlink:href="#aF"/><use transform="matrix(0.05,0,0,0.05,42.95,0)" xlink:href="#aO"/><use transform="matrix(0.05,0,0,0.05,52.95,0)" xlink:href="#bY"/></g><g id="aa"><use transform="matrix(0.05,0,0,0.05,0,0)" xlink:href="#bK"/><use transform="matrix(0.05,0,0,0.05,10,0)" xlink:href="#ay"/><use transform="matrix(0.05,0,0,0.05,20,0)" xlink:href="#aM"/><use transform="matrix(0.05,0,0,0.05,30,0)" xlink:href="#aG"/><use transform="matrix(0.05,0,0,0.05,39,0)" xlink:href="#aA"/><use transform="matrix(0.05,0,0,0.05,49,0)" xlink:href="#aB"/></g><g id="ab"><use transform="matrix(0.05,0,0,0.05,0,0)" xlink:href="#av"/><use transform="matrix(0.05,0,0,0.05,10.5,0)" xlink:href="#aT"/><use transform="matrix(0.05,0,0,0.05,19.450000000000003,0)" xlink:href="#aO"/><use transform="matrix(0.05,0,0,0.05,29.450000000000003,0)" xlink:href="#aU"/><use transform="matrix(0.05,0,0,0.05,41.45,0)" xlink:href="#aV"/><use transform="matrix(0.05,0,0,0.05,46.45,0)" xlink:href="#aB"/><use transform="matrix(0.05,0,0,0.05,52.400000000000006,0)" xlink:href="#aE"/><use transform="matrix(0.05,0,0,0.05,56.35,0)" xlink:href="#aM"/><use transform="matrix(0.05,0,0,0.05,66.35000000000001,0)" xlink:href="#aW"/></g><g id="ac"><use transform="matrix(0.05,0,0,0.05,0,0)" xlink:href="#bP"/><use transform="matrix(0.05,0,0,0.05,12.950000000000001,0)" xlink:href="#as"/><use transform="matrix(0.05,0,0,0.05,22.950000000000003,0)" xlink:href="#bG"/><use transform="matrix(0.05,0,0,0.05,29.950000000000003,0)" xlink:href="#bQ"/></g><g id="ad"><use transform="matrix(0.05,0,0,0.05,0,0)" xlink:href="#aw"/><use transform="matrix(0.05,0,0,0.05,10,0)" xlink:href="#aB"/><use transform="matrix(0.05,0,0,0.05,15.949999999999998,0)" xlink:href="#aE"/><use transform="matrix(0.05,0,0,0.05,19.9,0)" xlink:href="#aG"/><use transform="matrix(0.05,0,0,0.05,28.899999999999995,0)" xlink:href="#aA"/></g><g id="ae"><use transform="matrix(0.05,0,0,0.05,0,0)" xlink:href="#aM"/><use transform="matrix(0.05,0,0,0.05,10,0)" xlink:href="#ay"/><use transform="matrix(0.05,0,0,0.05,20,0)" xlink:href="#bY"/><use transform="matrix(0.05,0,0,0.05,34.95,0)" xlink:href="#aA"/></g><g id="af"><use transform="matrix(0.05,0,0,0.05,0,0)" xlink:href="#aS"/><use transform="matrix(0.05,0,0,0.05,9,0)" xlink:href="#aV"/><use transform="matrix(0.05,0,0,0.05,14,0)" xlink:href="#aB"/><use transform="matrix(0.05,0,0,0.05,19.95,0)" xlink:href="#aE"/><use transform="matrix(0.05,0,0,0.05,23.9,0)" xlink:href="#aM"/><use transform="matrix(0.05,0,0,0.05,33.9,0)" xlink:href="#aW"/></g><g id="ag"><use transform="matrix(0.05,0,0,0.05,0,0)" xlink:href="#aG"/><use transform="matrix(0.05,0,0,0.05,9,0)" xlink:href="#aO"/><use transform="matrix(0.05,0,0,0.05,19,0)" xlink:href="#ax"/><use transform="matrix(0.05,0,0,0.05,22.95,0)" xlink:href="#aO"/><use transform="matrix(0.05,0,0,0.05,32.95,0)" xlink:href="#aB"/></g><path fill="#333" d="M137 0h-34L2-248h35l83 218 83-218h36" id="bZ"/><g id="ah"><use transform="matrix(0.05,0,0,0.05,0,0)" xlink:href="#ay"/><use transform="matrix(0.05,0,0,0.05,10,0)" xlink:href="#aG"/><use transform="matrix(0.05,0,0,0.05,19,0)" xlink:href="#aV"/><use transform="matrix(0.05,0,0,0.05,24,0)" xlink:href="#aE"/><use transform="matrix(0.05,0,0,0.05,27.950000000000003,0)" xlink:href="#aR"/><use transform="matrix(0.05,0,0,0.05,36.95,0)" xlink:href="#ay"/><use transform="matrix(0.05,0,0,0.05,46.95,0)" xlink:href="#aV"/><use transform="matrix(0.05,0,0,0.05,51.95,0)" xlink:href="#aE"/><use transform="matrix(0.05,0,0,0.05,55.900000000000006,0)" xlink:href="#aO"/><use transform="matrix(0.05,0,0,0.05,65.9,0)" xlink:href="#aM"/><use transform="matrix(0.05,0,0,0.05,75.9,0)" xlink:href="#bZ"/><use transform="matrix(0.05,0,0,0.05,86.55000000000001,0)" xlink:href="#ay"/><use transform="matrix(0.05,0,0,0.05,96.55000000000001,0)" xlink:href="#ax"/><use transform="matrix(0.05,0,0,0.05,100.50000000000001,0)" xlink:href="#aL"/><use transform="matrix(0.05,0,0,0.05,110.5,0)" xlink:href="#aA"/></g><g id="ai"><use transform="matrix(0.05,0,0,0.05,0,0)" xlink:href="#aE"/><use transform="matrix(0.05,0,0,0.05,3.95,0)" xlink:href="#aM"/><use transform="matrix(0.05,0,0,0.05,13.949999999999998,0)" xlink:href="#aV"/></g><path fill="#333" d="M30 0v-248h187v28H63v79h144v27H63v87h162V0H30" id="ca"/><g id="aj"><use transform="matrix(0.05,0,0,0.05,0,0)" xlink:href="#ca"/><use transform="matrix(0.05,0,0,0.05,12,0)" xlink:href="#bW"/><use transform="matrix(0.05,0,0,0.05,16.65,0)" xlink:href="#bW"/><use transform="matrix(0.05,0,0,0.05,21.65,0)" xlink:href="#aA"/><use transform="matrix(0.05,0,0,0.05,31.649999999999995,0)" xlink:href="#aG"/><use transform="matrix(0.05,0,0,0.05,40.65,0)" xlink:href="#aV"/></g><path fill="#333" d="M68-38c1 34 0 65-14 84H32c9-13 17-26 17-46H33v-38h35" id="cb"/><g id="ak"><use transform="matrix(0.05,0,0,0.05,0,0)" xlink:href="#aP"/><use transform="matrix(0.05,0,0,0.05,5.95,0)" xlink:href="#aD"/><use transform="matrix(0.05,0,0,0.05,17.95,0)" xlink:href="#ax"/><use transform="matrix(0.05,0,0,0.05,21.9,0)" xlink:href="#ay"/><use transform="matrix(0.05,0,0,0.05,31.899999999999995,0)" xlink:href="#az"/><use transform="matrix(0.05,0,0,0.05,40.9,0)" xlink:href="#aA"/><use transform="matrix(0.05,0,0,0.05,50.9,0)" xlink:href="#aB"/><use transform="matrix(0.05,0,0,0.05,55.85,0)" xlink:href="#cb"/></g><g id="al"><use transform="matrix(0.05,0,0,0.05,0,0)" xlink:href="#aD"/><use transform="matrix(0.05,0,0,0.05,12,0)" xlink:href="#ax"/><use transform="matrix(0.05,0,0,0.05,15.949999999999998,0)" xlink:href="#ay"/><use transform="matrix(0.05,0,0,0.05,25.950000000000003,0)" xlink:href="#az"/><use transform="matrix(0.05,0,0,0.05,34.95,0)" xlink:href="#aA"/><use transform="matrix(0.05,0,0,0.05,44.95,0)" xlink:href="#aB"/><use transform="matrix(0.05,0,0,0.05,50.900000000000006,0)" xlink:href="#aQ"/></g><g id="am"><use transform="matrix(0.05,0,0,0.05,0,0)" xlink:href="#av"/><use transform="matrix(0.05,0,0,0.05,10.5,0)" xlink:href="#aT"/><use transform="matrix(0.05,0,0,0.05,19.450000000000003,0)" xlink:href="#aO"/><use transform="matrix(0.05,0,0,0.05,29.450000000000003,0)" xlink:href="#aU"/><use transform="matrix(0.05,0,0,0.05,41.45,0)" xlink:href="#aV"/><use transform="matrix(0.05,0,0,0.05,46.45,0)" xlink:href="#aB"/><use transform="matrix(0.05,0,0,0.05,52.400000000000006,0)" xlink:href="#aE"/><use transform="matrix(0.05,0,0,0.05,56.35,0)" xlink:href="#aM"/><use transform="matrix(0.05,0,0,0.05,66.35000000000001,0)" xlink:href="#aW"/></g><path d="M27 0v-27h64v-190l-56 39v-29l58-41h29v221h61V0H27" id="cc"/><use transform="matrix(0.05,0,0,0.05,0,0)" xlink:href="#cc" id="an"/><path d="M101-251c82-7 93 87 43 132L82-64C71-53 59-42 53-27h129V0H18c2-99 128-94 128-182 0-28-16-43-45-43s-46 15-49 41l-32-3c6-41 34-60 81-64" id="cd"/><use transform="matrix(0.05,0,0,0.05,0,0)" xlink:href="#cd" id="ao"/><path d="M101-251c68 0 85 55 85 127S166 4 100 4C33 4 14-52 14-124c0-73 17-127 87-127zm-1 229c47 0 54-49 54-102s-4-102-53-102c-51 0-55 48-55 102 0 53 5 102 54 102" id="ce"/><path d="M33 0v-38h34V0H33" id="cf"/><path d="M80-196l47-18 7 23-49 13 32 44-20 13-27-46-27 45-21-12 33-44-49-13 8-23 47 19-2-53h23" id="cg"/><g id="ap"><use transform="matrix(0.05,0,0,0.05,0,0)" xlink:href="#ce"/><use transform="matrix(0.05,0,0,0.05,10,0)" xlink:href="#cf"/><use transform="matrix(0.05,0,0,0.05,15,0)" xlink:href="#cf"/><use transform="matrix(0.05,0,0,0.05,20,0)" xlink:href="#cg"/></g><path fill="#333" d="M240-174c0 40-23 61-54 70L253 0h-59l-57-94H76V0H24v-248c93 4 217-23 216 74zM76-134c48-2 112 12 112-38 0-48-66-32-112-35v73" id="ch"/><path fill="#333" d="M135-194c87-1 58 113 63 194h-50c-7-57 23-157-34-157-59 0-34 97-39 157H25l-1-190h47c2 12-1 28 3 38 12-26 28-41 61-42" id="ci"/><path fill="#333" d="M110-194c64 0 96 36 96 99 0 64-35 99-97 99-61 0-95-36-95-99 0-62 34-99 96-99zm-1 164c35 0 45-28 45-65 0-40-10-65-43-65-34 0-45 26-45 65 0 36 10 65 43 65" id="cj"/><g id="aq"><use transform="matrix(0.05,0,0,0.05,0,0)" xlink:href="#ch"/><use transform="matrix(0.05,0,0,0.05,12.950000000000001,0)" xlink:href="#as"/><use transform="matrix(0.05,0,0,0.05,22.950000000000003,0)" xlink:href="#ci"/><use transform="matrix(0.05,0,0,0.05,33.900000000000006,0)" xlink:href="#bQ"/><use transform="matrix(0.05,0,0,0.05,44.85000000000001,0)" xlink:href="#cj"/><use transform="matrix(0.05,0,0,0.05,55.80000000000001,0)" xlink:href="#at"/></g></defs></g></svg>